<svg height="32" viewBox="0 0 32 32" width="32" xmlns="http://www.w3.org/2000/svg"><path d="m3.25 3.25h3l.001 22.5h22.498v3h-22.498c-1.587 0-2.879-1.223-2.993-2.777l-.008-.224v-22.498zm24.474 1.263c0 .604-.057 1.22-.168 1.847-.441 2.498-1.701 5.083-3.521 7.676-.782 1.115-1.617 2.157-2.454 3.101l-.586.646c-.115.123-.22.233-.313.329l-.241.244-.971.953-5.386-4.518-.252.492c-.452.851-.96 1.696-1.528 2.513l-.436.606c-1.76 2.362-3.811 4.135-6.192 5.055l-.45.162-.954-2.844c1.91-.641 3.654-2.105 5.19-4.166.779-1.045 1.451-2.172 2.011-3.3l.229-.473c.173-.367.3-.665.382-.873l.786-2.105 6.396 5.365.069-.075c.612-.691 1.225-1.441 1.81-2.234l.433-.602c1.589-2.265 2.67-4.482 3.022-6.475.054-.306.09-.605.108-.895l.014-.43h3z"/></svg>