<svg height="32" viewBox="0 0 32 32" width="32" xmlns="http://www.w3.org/2000/svg"><path d="m16 1.205 16 11.2-1.766 2.522-1.919-1.343.001 14.129c0 1.618-1.264 2.956-2.86 3.074l-.23.009h-18.453c-1.628 0-2.963-1.256-3.081-2.853l-.008-.23-.001-14.129-1.917 1.343-1.766-2.522 16-11.2zm-.075 15.714c-2.494-.228-4.544 1.62-4.544 4.167v6.63h3.079v-6.63l.009-.168c.073-.651.572-1.026 1.267-.921l.263.039.228-.034.203-.021c.656-.024 1.109.419 1.109 1.105v6.63h3.079v-6.63l-.008-.269c-.14-2.396-2.137-4.117-4.536-3.898l-.074.008z"/></svg>